<?xml version="1.0" encoding="UTF-8" standalone="no"?>
<!DOCTYPE svg PUBLIC "-//W3C//DTD SVG 1.1//EN"
 "http://www.w3.org/Graphics/SVG/1.1/DTD/svg11.dtd">
<!-- Generated by graphviz version 2.40.1 (20161225.0304)
 -->
<!-- Title: nfa Pages: 1 -->
<svg width="388pt" height="216pt"
 viewBox="0.00 0.00 387.69 216.45" xmlns="http://www.w3.org/2000/svg" xmlns:xlink="http://www.w3.org/1999/xlink">
<g id="graph0" class="graph" transform="scale(1 1) rotate(0) translate(4 212.4481)">
<title>nfa</title>
<polygon fill="#ffffff" stroke="transparent" points="-4,4 -4,-212.4481 383.6886,-212.4481 383.6886,4 -4,4"/>
<!-- regex -->
<g id="node1" class="node">
<title>regex</title>
<path fill="none" stroke="#000000" d="M58,-70C58,-70 12,-70 12,-70 6,-70 0,-64 0,-58 0,-58 0,-12 0,-12 0,-6 6,0 12,0 12,0 58,0 58,0 64,0 70,-6 70,-12 70,-12 70,-58 70,-58 70,-64 64,-70 58,-70"/>
<text text-anchor="start" x="4" y="-28.8" font-family="Times,serif" font-size="24.00" fill="#000000">a*|b*</text>
</g>
<!-- * -->
<!-- 0 -->
<g id="node3" class="node">
<title>0</title>
<ellipse fill="none" stroke="#000000" cx="132.4481" cy="-99" rx="21.4044" ry="21.4044"/>
<ellipse fill="none" stroke="#000000" cx="132.4481" cy="-99" rx="25.3963" ry="25.3963"/>
<text text-anchor="start" x="123.9481" y="-96.3" font-family="Times,serif" font-size="14.00" fill="#000000">q</text>
<text text-anchor="start" x="133.9481" y="-96.3" font-family="Times,serif" baseline-shift="sub" font-size="11.00" fill="#000000">0</text>
</g>
<!-- *&#45;&gt;0 -->
<g id="edge8" class="edge">
<title>*&#45;&gt;0</title>
<path fill="none" stroke="#000000" d="M40.804,-99C51.6701,-99 75.8663,-99 96.6685,-99"/>
<polygon fill="#000000" stroke="#000000" points="96.8408,-102.5001 106.8408,-99 96.8407,-95.5001 96.8408,-102.5001"/>
</g>
<!-- 2 -->
<g id="node5" class="node">
<title>2</title>
<ellipse fill="none" stroke="#000000" cx="247.3443" cy="-150" rx="21.4044" ry="21.4044"/>
<ellipse fill="none" stroke="#000000" cx="247.3443" cy="-150" rx="25.3963" ry="25.3963"/>
<text text-anchor="start" x="238.8443" y="-147.3" font-family="Times,serif" font-size="14.00" fill="#000000">q</text>
<text text-anchor="start" x="248.8443" y="-147.3" font-family="Times,serif" baseline-shift="sub" font-size="11.00" fill="#000000">2</text>
</g>
<!-- 0&#45;&gt;2 -->
<g id="edge2" class="edge">
<title>0&#45;&gt;2</title>
<path fill="none" stroke="#000000" d="M155.9763,-109.4437C172.8604,-116.9382 195.8348,-127.136 214.5214,-135.4306"/>
<polygon fill="#000000" stroke="#000000" points="213.2875,-138.7122 223.8475,-139.5703 216.1275,-132.3141 213.2875,-138.7122"/>
<text text-anchor="middle" x="189.8962" y="-133.8" font-family="Times,serif" font-size="14.00" fill="#000000"> &#160;b &#160;</text>
</g>
<!-- 3 -->
<g id="node6" class="node">
<title>3</title>
<ellipse fill="none" stroke="#000000" cx="247.3443" cy="-48" rx="21.4044" ry="21.4044"/>
<ellipse fill="none" stroke="#000000" cx="247.3443" cy="-48" rx="25.3963" ry="25.3963"/>
<text text-anchor="start" x="238.8443" y="-45.3" font-family="Times,serif" font-size="14.00" fill="#000000">q</text>
<text text-anchor="start" x="248.8443" y="-45.3" font-family="Times,serif" baseline-shift="sub" font-size="11.00" fill="#000000">3</text>
</g>
<!-- 0&#45;&gt;3 -->
<g id="edge7" class="edge">
<title>0&#45;&gt;3</title>
<path fill="none" stroke="#000000" d="M155.9763,-88.5563C172.8604,-81.0618 195.8348,-70.864 214.5214,-62.5694"/>
<polygon fill="#000000" stroke="#000000" points="216.1275,-65.6859 223.8475,-58.4297 213.2875,-59.2878 216.1275,-65.6859"/>
<text text-anchor="middle" x="189.8962" y="-83.8" font-family="Times,serif" font-size="14.00" fill="#000000"> &#160;a &#160;</text>
</g>
<!-- 1 -->
<g id="node4" class="node">
<title>1</title>
<ellipse fill="none" stroke="#000000" cx="358.2405" cy="-99" rx="21.3963" ry="21.3963"/>
<text text-anchor="start" x="349.7405" y="-96.3" font-family="Times,serif" font-size="14.00" fill="#000000">q</text>
<text text-anchor="start" x="359.7405" y="-96.3" font-family="Times,serif" baseline-shift="sub" font-size="11.00" fill="#000000">1</text>
</g>
<!-- 1&#45;&gt;1 -->
<g id="edge6" class="edge">
<title>1&#45;&gt;1</title>
<path fill="none" stroke="#000000" d="M348.8928,-118.4849C347.3043,-128.9312 350.4202,-138.4481 358.2405,-138.4481 363.3726,-138.4481 366.4786,-134.3495 367.5587,-128.5794"/>
<polygon fill="#000000" stroke="#000000" points="371.0588,-128.4951 367.5882,-118.4849 364.0589,-128.4746 371.0588,-128.4951"/>
<text text-anchor="middle" x="358.2405" y="-142.2481" font-family="Times,serif" font-size="14.00" fill="#000000"> &#160;a,b &#160;</text>
</g>
<!-- 2&#45;&gt;1 -->
<g id="edge4" class="edge">
<title>2&#45;&gt;1</title>
<path fill="none" stroke="#000000" d="M270.5918,-139.3087C287.7118,-131.4354 311.0994,-120.6797 329.4098,-112.2589"/>
<polygon fill="#000000" stroke="#000000" points="331.1015,-115.3334 338.7244,-107.9752 328.1767,-108.9737 331.1015,-115.3334"/>
<text text-anchor="middle" x="304.7924" y="-132.8" font-family="Times,serif" font-size="14.00" fill="#000000"> &#160;a &#160;</text>
</g>
<!-- 2&#45;&gt;2 -->
<g id="edge3" class="edge">
<title>2&#45;&gt;2</title>
<path fill="none" stroke="#000000" d="M237.0084,-173.6864C236.024,-184.2833 239.4693,-193.4481 247.3443,-193.4481 252.5123,-193.4481 255.7725,-189.5011 257.1251,-183.7927"/>
<polygon fill="#000000" stroke="#000000" points="260.6264,-183.8634 257.6802,-173.6864 253.6369,-183.4794 260.6264,-183.8634"/>
<text text-anchor="middle" x="247.3443" y="-197.2481" font-family="Times,serif" font-size="14.00" fill="#000000"> &#160;b &#160;</text>
</g>
<!-- 3&#45;&gt;1 -->
<g id="edge1" class="edge">
<title>3&#45;&gt;1</title>
<path fill="none" stroke="#000000" d="M270.5918,-58.6913C287.7118,-66.5646 311.0994,-77.3203 329.4098,-85.7411"/>
<polygon fill="#000000" stroke="#000000" points="328.1767,-89.0263 338.7244,-90.0248 331.1015,-82.6666 328.1767,-89.0263"/>
<text text-anchor="middle" x="304.7924" y="-83.8" font-family="Times,serif" font-size="14.00" fill="#000000"> &#160;b &#160;</text>
</g>
<!-- 3&#45;&gt;3 -->
<g id="edge5" class="edge">
<title>3&#45;&gt;3</title>
<path fill="none" stroke="#000000" d="M237.0084,-71.6864C236.024,-82.2833 239.4693,-91.4481 247.3443,-91.4481 252.5123,-91.4481 255.7725,-87.5011 257.1251,-81.7927"/>
<polygon fill="#000000" stroke="#000000" points="260.6264,-81.8634 257.6802,-71.6864 253.6369,-81.4794 260.6264,-81.8634"/>
<text text-anchor="middle" x="247.3443" y="-95.2481" font-family="Times,serif" font-size="14.00" fill="#000000"> &#160;a &#160;</text>
</g>
</g>
</svg>
